<mxfile host="Electron" agent="Mozilla/5.0 (Windows NT 10.0; Win64; x64) AppleWebKit/537.36 (KHTML, like Gecko) draw.io/27.0.2 Chrome/134.0.6998.205 Electron/35.3.0 Safari/537.36" version="27.0.2">
  <diagram name="Page-1" id="BmoR1fEIG3Iy-MBZjWRg">
    <mxGraphModel dx="1426" dy="849" grid="1" gridSize="10" guides="1" tooltips="1" connect="1" arrows="1" fold="1" page="1" pageScale="1" pageWidth="1100" pageHeight="850" math="0" shadow="0">
      <root>
        <mxCell id="0" />
        <mxCell id="1" parent="0" />
        <mxCell id="Gue0FOOu4dFzO12Dlx_n-1" value="" style="shape=image;verticalLabelPosition=bottom;labelBackgroundColor=default;verticalAlign=top;aspect=fixed;imageAspect=0;image=data:image/png,iVBORw0KGgoAAAANSUhEUgAAAkAAAAGWCAYAAACQFTyZAAAAAXNSR0IArs4c6QAAAARnQU1BAACxjwv8YQUAAAAJcEhZcwAADsMAAA7DAcdvqGQAAGJBSURBVHhe7d0JXFTlwgbwB1kURFDEBdQ0USvRDO0q2jXTtNDMRM32xZuflpZLtzLNsmzxVpZpaWKW7YvpxWumlNpi5pZK5Y6g4gKyySb79p33zDvMDDAsMweY5fn7Oz/POTNzmHmZ4TzznndxKSuML4OVAjuHIiF+j9yyjBbHEBzxOCwb81g25rFsqscyNo9lYx7Lxjx7K2NNAhARERGRPWki/yciIiJyGgxARERE5HQYgIiIiMjpMAARERGR02EAIiIiIqfDAEREREROhwGIiIiInA4DEBERETkdBiAiIiJyOgxARERE5HQYgIiIiMjpMAARERGR02EAIiIiIqfDAEREREROhwGIiIiInI4mASiwc6hcs5wWxxAc8TgsG/NYNuaxbKrHMjaPZWMey8Y8eytjl7LC+DK5TkREROQUeAmMiIiInA4DEBERETkdBiAiIiJyOgxARERE5HTYCLqRFReXICs7R24RERE5rlYtW8DFxUVuNS4GoEZUWFiEL9duQ/zZi3IPERGR47ru2u4Yc9sNNhGCeAmskTD8EBGRs/nz75PY+P3vKCtr/LoXBqBGErlxB8MPERE5HRGCfvktWm41HgagRpKekS3XiIiInEt6euOfAxmAiIiIyOmwEXQjWbl6A5KS0+WWTvduHdE5Kw0Xdv0h95jn1qwprv/3Y/Dwbi73EBER1b/s8wn4c8Ua1KYZT49xo/DLmTRkZpn2du4d3BXj7hgitxoHA1AjqSoAhbRtgehp/5ZbNes1cQzGf/6u3CIiIqp/74fcguQjJ+RWzbp/8B5OXkiVWzoMQE6sqgDU2xM4NOdFdf22915V/6/Kqe07cSxyC64cdgMejPpS7iUiIqp/izv1Q05SKoY8Pwve7drIvZV9//hz6v9By5cgLiVTXddjAHJi1QWgmoKNCECfjbyPAYiIiBqcPgD9++x+eLc3H4D097PVAMRG0EREROR0WAPUSOpSA3T8eCyaeTaFu7u7un1h5z5suf8JBN7wD4z64j11H9VNSYnube/qahtDsjsC0SCypLgEbu6ucg9poaioRPnss0y1VKyUaRPXJmjShJ9/S3xx/UjkpV7CfX9shmeb1uq+3Nw8eLh7oHPnDuq2YOs1QJoEoMDOoUiI3yO3LKPFMQR7OU5dApBrsyvR2q8VPDx0AahDQSFGpV3ChaYe2NzaT91XGxeTUtC+muu1tWVLx7H0GCUlper/rsofQYFlY15tj1OqJCBRru5uVZ+sWcbmVXecQuVk7VHLAORsZVMXxscpUoK6+Ow3sWA6Bkcvm9q472IyvEpL8Xn7tshrovsbmpOTixwlBBXmxKrbgqUBqKEyBWuAGkldAtDAwWOxZPEChA4IUbfZBsh68ecyUKb869KpldxD1srMysfps+m4rleA3ENa2Lk3HgOv71Qe1sl6R44no13b5vD34zAilqiqDVDEB18g+s8jWLn8NXVbYBsgIiIiIhvDAEREREROhwHIBp3+6Xdsmj6vfAk+fQ5HFr9vso+IiKgxGZ+TMr/aAN+d+0z2ictftoxtgBpJVW2A/tGlLf54eJrcqlnojEdw6+IX5BbVBdsAaY9tgOoH2wBpj22ArCPaoIq2qLXh1aY1Or7+CmLOJsk9OhwI0YlVFYAG39AHPX2b4vy+aLlH5423VuLOcbfhyis7yT2Au2czXHtvOFxc2T3WEgxA2mMAqh8MQNpjALJOYXYODn29AWVGk4H9tnMfzp1PxL133yH36HQPG4ote4/jxMmzco8OA5ATMxeAhg3pK7cMKvYCI+sxAGmPAah+MABpjwFIe1X1AtP7+tvtNhmA+IkiIiIip8MARERERE6HAYiIiIicDgMQEREROR0GoHp3Bu/c2BkuHp0xNUruIiIiokbFAFTfYrdjrfVzqhIREZGGGIDqU+yHGNRzIXbLTSIiIrINDECa+xlTPXSXvFwYfoiIiGwSAxARERE5HQYgzQ1FRGE8yvTLxnvlfiIiIrIVmgSgwM6hcs1yWhxDsLnjPLxBrlnuwMHDcs06jljGjviaBJaNeSxj81g25rFszNPqOJ99ESnXrNNQZaxJAEqIt76bkxbHEGzuOB+PlWuW69e3l1yzjiOWsSO+JoFlYx7L2DyWjXksG/O0Os4D94XLNes0VBnzEpgduHy5F/bsbYvfdjbFsePuyMlxkbcQERGRJTgbfH2LmguXMV+qq1M2xiMiTF2tcjb4uLgYnIw5Jrd0iot9sP/Az8qaaehxc0uBp+cxeHkdgrf3XmX9byx95z9o1aqlvAdVp6CwBCgrQ9OmbnIPWau4pBSFBSXKe9Jd7iEtZF8ugHfzpnDh9x7N5OUVwc3dFe5urAPQyvr1G3DmzCl8/vFiucfAVmeDZwCqb3UIQF27tEP3oAC5ZTDhrp3o0+d2JeS0R3a2BxISvXHuXAtkZjaV9wCaNy/C7aNzcPfEHAy5MRdN+Lmu1sXkbJF/ENCuhdxD1rqcU4jEpCx07+ov95AW/jqSiN7XtFc+00xAWjkdf0n5suiFlj7N5B6y1pqPv8bhI8fwwcr/yD0GDEDOqg4BaPANfTBsSF+5ZTBw8FgsWbwAoQNC5B6dhERX9bLY1m3NsO6/Xkog0qWeoK7FmPZoNh6ZlANf31J1H5mKP5eBMuVfl06t5B6yVmZWPk6fTcd1vSqHeLLczr3xGHh9J7i68luNVo4cT0a7ts3h79dc7iFrRXzwBaL/PIKVy1+TewxsNQDxE2XHAgNKcNeduVgdcQlpF89jW1Qy7p6Yi3PnXfHvZ1qhc7dAvPCSLzIy+GsmIiIyxjOjg3B1BW4elo+vPk/FuVMJeP65THXfy6/6IujqQLyzrAWKiliFTkREJDAAOaC2bUuwcEEmzpxMwEsvZCrBB5j9VCv0DmmPX37lNW8iIiIGIAfWokUpXpifiZNHE/HAfTmIOemOoSPa4pEpfsjK4q+eiIicF8+CTqBduxJ8uiYNO35KQvduxfjoY29c27c9fv6FtUFEROScGICcyD9vKMDhPxMxd04Wzp13w823tsW851uipETegYiIyEkwAGnuZ0z16AwX/SK7wAurxhj2//X3Rbm3YXl4lOG1lzPw6/YkXNGpGIte98FNw9shMdFV3oOIiMjxMQA5KVEbFP3HRdx+Wx52/t4U/ULbY9duw8CKREREjowBSHNDEVEYj7Ialj7Xtpf3bzytWpXif/9NwasLM5CU5IqbhrfFmk84MBgRETk+BiAnJ+YXmvdsFjZtEHOLleFf/9cazz7XUp0mgoiIyFExAJFqZFge9uxMwpVdivH6mz64+z5/FBZy4EQiInJMDEBU7pqri7D394u4vl8h1q7zQtjoNhwviIiIHJImZ7fAzqFyzXJaHENwxOMcOHhYrlmnNs+lTZtStYfYqJF56jhBol1QSorp28SWysaWnovAsjGPZWwey8Y8lo15tnacz76IlGvWaagy1iQAJcTvkWuW0+IYgiMep1/fXnLNOrV9Ll5eZfjf+hTcf28Oov/0wI3D2uFCgqGbvC2VjS09F4FlYx7L2DyWjXksG/Ns7TgP3Bcu16zTUGXM6xtUJTc3qKNHT38sG8dPuGPwTe0Qf1bZSURE5AAYgMgs0UPsvaXpeOapLJw+44Ybh7bFqdMMQUREZP8YgKhGr7+WoU6qevacG4YMa8cQREREdo8BiGrlpRcy8eLzmTh/wRXDRrTl5TAiIrJrDEBUawuUACQWEX6GDm+Lc+c5fxgREdknBiCqE1EL9OwzujZBw29tp06hQUREZG8YgKjOFr2SgcenZSPmpBtGjGyLjAy+jYiIyL7wzEUWWbYkHZMeysGhw+647Y42yM3ltBlERGQ/GIDIIqKL/OqINNw5Phe7djfFuIltOHcYERHZDQYgslgT5d3z+SdpGDE8Hz/82AwPTmrNWeSJiMguMACRVTw8yhD5bQpCBxTgm2+9MPPJVvIWIiIi28UARFZr3rwMmzak4OqrivDu8hZ4Y7GPvIWIiMg2MQCRJlq3LkXU9ylo164Ezz7XEl9+3VzeQkREZHsYgEgzna8oxg9KCGrRohSTJvth2/Zm8hYiIiLbwgBEmupzbSH+uzZVbQw9bqI//vrbQ95CRERkOzQJQIGdQ+Wa5bQ4huCIxzlw8LBcs05Dvaabh+Xjw1WXkJ3dBLeNaaPOH1YVLZ6PLf2eBFs6Dsumeixj81g25rFszPvsi0i5Zp2GKmNNAlBC/B65ZjktjiE44nH69e0l16zTkK/pgftysHBBJi4kuGLU7W3VMFSRFs/Hln5Pgi0dh2VTPZaxeSwb81g25j1wX7hcs05DlbFLWWE8R25pBCtXb0BScrrc0hl8Qx8MG9JXbhkMHDwWSxYvQOiAELnHfkye6ocP13jj1lvysWlDMtxsZBL5+HMZKFP+denEbvtayczKx+mz6biuV4DcQ1rYuTcenp5ecovIPm3atEmu6fQO7opxdwyRW42DAaiROEsAKi4GbrujLX7c2gxT/+8yVi6/JG9pXAxA2mMAqh/6ANSjRw+5h8i+xMTE2GQAYiNoqleixufbr1LRK7gIER94460lHCOIiIgaHwMQ1Tsfn1J8v1E3RtAzc1vif995yluIyBaVlpaWL0SWsIf3DgMQNYgrOhVj439T0LRpGe59wB/7D7B7PBERNR4GIGow/f9RiM8+TkNengvGjDPfPZ6IiBxLQUEBioqKUFJSgrKyMnVpbAxA1KDGh+fitZczkJjoitvHtkFOjou8hYiIHNXly5eVL795KC4utpnLYwxA1OCefSYLDz+Ygz//8sB9D/orHwZ5AxEROaRLly4hKytLrQliACKnFrHiEm4cXKA2iJ47v6XcS0REjig7O1utARKXwRiAyKl5eJThv2tTENS1GG8s9sGaTzh7PBGRoxLBx/jyF9sAkVNr3boUm/6XAl/fUjw63Q87fmsqbyEiuxa3HMOHL0ec3CTSN3y2heCjxwBEjerqq4qw9stUlJS4YNzENog7ZSNzZRBRZSLY+PjAx2QZjuXmko5xEDIXiiodcya2ypsaTG2eJzkcBiBqdLeMyMfSt9ORltZE7RmWmcm3JZHN6r8I0VlZaoNW3bIN04PkbRUFTce2bdNh7uZyxsdcD4xvzABS2+dMdo9nGrIJ0x/LxrRHL+PYcXfcfb8/SkrkDURkH4xrckLmYp9+nxpm4rB8qrJv31yEKLcPN1tlpBgxGpP2xeCUfOzymUa1QsY/w3jf8JmYOVy/3wcz9VVIJveXNVWVjlvhuS1caKgBqurx6u7hcp+yNGZYI6swAJHNWPr2JYwYno+oH5rhyac5SSmRTZJBwTQAbMVMJfQEr5e1ONGL0F/eXScI0yOUfbKmZ5vZKiMRLl7Hmv490FVsKD8rZrQ45lKMqPAzohcdwXh90tl3BD0i5M9ePwlrxotgI+4fgzlin/qcwhE5VYYVk+NWeG73tVYPCXOPV0LR1LnBWC/3rw9Wwpp8BNkXBiCyGWLiVNEe6KoeRVj2XgusXOUtbyEim1HxEpi4XBQXgyPK/hkj5H3qyihUhUSGI1p/Ccr4mBV+RlBYOPqv2aTEFEX/cITpM5WoQcIRxPys3B9rMF4f1EStlKhZEvepzXMVP6+qxwf1QLC6X1cDNWKpCFFkjzQJQIGdQ+Wa5bQ4huCIxzlw8LBcs449lE3LlrqeYX5+pXhilh+2bW8mb6maPbwmS2hxHJZN9RyxjO2WcajSsv2N8XHVpY5hpcrHj8BSdX00NqnhSF6KI8001GdTkwCUEL9HrllOi2MIjnicfn17yTXr2EvZdAsqVscIcnEpw533+ONEjLu8pTJ7eU11pcVxWDbVc8QybjSiVmRfJKL0bWSiInVtgCrS18BYQv0Zc7FMpg31Z0waXTnQbN2ENaJGaKjp/WtU8blV+Hnl4pZjptoYSAShaCzqfwQxbASkqYb6bPISGNmkITcW4P330pGRoesZlp7OtyqRTTC6XKVbRONgJQysD8bcEN2+qTHBFdoAKYKmY84k3SWlahtBm6X8jOhFODJe9zNCRDucpTL+GD+n8cB6tRbJ9P7qYq7BsvFz+yJN7jTzeCUYKS9U7gtBZHiE+V5wZNNcygrjbWdUIieycvUGJCWnyy2dwTf0wbAhfeWWwcDBY7Fk8QKEDgiRe5yHaAy9ZGkLDBuajx++T1bbCWkh/lwGypR/XTqxsbVWMrPycfpsOq7rFSD3kBZ27o2Hp6cXevRQTrwNxHiqgiZNbPzLh+ipNRWIYNd1myLeQ/r3TkxMDObPn6+GRn9/f/j6+qLvdVdhQvhQ9fbGwq/VZNMWv56OUSPz8NPPzTDtCT+5l4iIyDoMQGTTxBeIrz9PQ6/gInzwoTfefqeFvIWISMGBC8lCDEBk81q0KMV3G1LQpk0pnn62Fb773lPeQkREZBkGILILXToX47vIZHUW+Xsf8Mdff3vIW4iIiOqOAYjsxoD+hfjkozTk5Lhg9B1tkJjoKm8hIiKqGwYgsisTJ+TipRcycf6CK8aMa4PcXBd5CxERUe0xAJHdef65TDxwXw72H/DA/Q+1RhkHciAiojpiACK7tDriEgb/swCR//PCnHkt5V4iIqLaYQAiuyQaQ0d+m6JOm/HmWz5qF3kiIqLaYgAiu9W6dSm+35isTpwqBkncuq36iVOJiIj0GIDIrvXorps4tUmTMky42x9HjpqfOJWIiEiPAYjsnpg49YOVl5CV1QSjbm+DixfZPZ6IiKrHAEQO4cH7c7Dg+UycPeeG0WPbqGMFERGZJSZRNTc7vL1z5NemIQYgchgvKgHo4QdzcOCgB+6+3x8lJfIGItKOOLn6+Kgze4tl+PIaTrP1eDKOWz68/HmYfS72Hga2zjR5jT4zt+r2a/G6qjqGvZdXHWgSgAI7h8o1y2lxDMERj3Pg4GG5Zh1HLJuKx1j1/iXcPCwfm773xBOzaj97vDOUjaV4HPNs7TXVv62YGRKJ8OgsZGWJZT2CY07J2xqWCD8hkeGIVp+HWKIRHhNV+cRtx5OlqgFvPLC+/DVmYT02Kb8FC9lJuGmoz6YmASghfo9cs5wWxxAc8Tj9+vaSa9ZxxLKpeAx39zKs/yZVnT3+/QhvvP6mj7yles5QNpbiccyztdfUMILRozxNjMDSpSN0q+LkWl5TMRy6ypg4LJ86F/v2zUWIsr9SDY3JY2bqTuzyJL18pn6/D/SVHgZbsWwusCjCONgEYfpSZdvk8coxjU/6xj8vRHle6uNsVRyiIpXXGL1UKWWDEUvFdoVyXbjQ9DXL+9qrhvps8hIYORxf31Js/i4ZgQElmDu/Jb78urm8hYisMwKjJ63BeBEgTFKJqBmKwRx9TUV0OCKnitChhJKIRejff5FaU7NtunE9jHjMXASv1z0metERjNcfUzmxx4yWx1o/CWter3iZJgZH+ocjzFy1TvnjjcOD6c/Lilael7zFJsVFIXKfcdg0VqFc72tt5jVTdRiAyCF16liihKAUeHuX4uFH/LD9J44RRKSFEUtlgBi9SVeTIkKLCCSQwUhfu7IvBtVeHFNDzCLMkGfroLBw9F8jL+8Y7UfXHjUElTgsHy5/rr6mx/jxehV+nl3o3wNd5WqNzL42JfiZ/F50tUZie/gXafI+zokBiBxWn2sL1cthwriJ/vj7EMcIItLMiKVKEFqPSUahxdAep55rIoJ6IHhfJKLUtBOE6duUn2frNTp1ZfIarTECS/W/E1FGRr8ntebIiTEAkUMbMTwfH67SjREUNrotzsS7yVuIqM5EGxrjS19qrUoPdFVP1nOxzOgmE1XVBlV4TFxUJPZNGl3L0DQCMxYBc9XLbLVUIVCoP0+3aqPkawwxbdOzdabRdk21bDWpImSp5RLcw6htleNiACKHJ2aOX/RKBhITXRF2WxukpfFtT2SRoDCEHxmvu5yiXlKJRLjaEHkElkYvwpHxcr9Y9JejgqZjjmw3ZNoI2vQxIXODsV7foLoWgqZvQ3R4ZPnlHHF5B+Fh1Zy4lZ+3PlgJFLr7T40JtvkaI/U1irZR+teoLOMhQ6JxuVp8KUv8DsIRKctELGrPujr8HuyZS1lhfJlcpwa0cvUGJCWnyy2dwTf0wbAhfeWWwcDBY7Fk8QKEDgiRe8gSM59shWXvtVDKsQAfrT4JT68SdOnUSt5K1srMysfps+m4rleA3ENa2Lk3Hp6eXujRo4fcU/9KS0vlmvItuQm/MFDdifeQ/r0TExOD+fPnqwHL398fvr6+6HvdVZgQPlS9vbHwnU1OY8nidNx1Zy727G2Kx6Z3RnEJR4smInJWDEDkNMSXkU/XpGH4zfn4dUcLPDOnE8pY/0lE5JQYgMipeHiUIfLbFFzbOw+Rka3w5NO8BEZE5IwYgMjpeHuX4eOPTqNLlwK8s6wFXl1Uu9GiiYjIcTAAkVPy8yvG55+eQofAEsxf0FKdNoOIiJwHAxA5rQ4dCvHjlmS0aVOK6TP88MVXnDKDiMhZMACRU+t5TRGiNiWjRQsxZUZrbNzkKW8hIiJH1vABKMofLh5X1LhMjZL3J6pnfUMKsfG/KXBzK8Nd9/rj5184bxgRkaNrmABkHHrGeMmd1Vs1hmGIGs6QGwuw7utUlJQAY8a1wa7dTeUtRETkiOo3AOmDTy1Djzn6MMQgRPXptlF5+PyTNOTmumDUmDaI/tND3kJku8RYViVKci/VD2rl4gKXJk3QxNUVrkaLGI2XiAw0CUCBnUPlmp4XppoNPrnYXHgWZRWWgIBAo+1ELKl4SIUuCPlji9yuSuXnYhlbOs6Bg4flmnUcsWy0fi4TJ+RidUSaOnnqLaPa4uixus0g78hlYy1HPI4tPJfSslI1/JSV6v43N7qnmxsnAib70FCfTU0CUEL8HrmmUGt9/LFKbqompxqFm1SMlLuNmRwDRZi1Q3//s9g8We5WeWFUNbVBpsexnC0dp1/fXnLNOo5YNvXxXCY9lIN330lHamoTDB3RFsdP1D4EOXrZWMMRj2MLz0XMt6QuxjU+yra6iHUl+IhF3Ed/u7t73YI9UUNqqM+mxpfAvDDVuNZHH3xW5Modlhm5QheETi4ukntEbVD1NUFE1pj+WDbeeiMdycmuuPmWtoiN47dnsk0uLi6GwGMUcsSihh65iPvJB+j+J8cVtxzD9bPxk1n11AZIXuayMvhU1G1GolqDNEVuE9WnJ2dl4/XXMpCQ6Iqbbm6HuFMMQWR7ymuAxCJDj1hE4NH/r1+Mw5FVts5UZ/YuX2ZulTeQ5syVtZYhx0l/n9oHILXWp+rLXNrIRUSly2JE9eOZp7KwcEEmLiS4Yujwdjh9hiGIbEsTGXTU8GMUdiqGH7Go4UcGJEvFLR8On/HA+qwsZMllPTaBEUh7mpd1FaHJmX+fGgcgJZxoXOtjzsgV9RmyiAyefy4TL8zPxLnzoiaoLU6dZggi26EPO8bhx3hRb5OBx3i/ZeIQFQksil6KEXKPMGKp3BYn2PKahJm6k6h60p2JmcMNNQy6CoY4LFf2GSobtmKmz3As53UbqbqyVspu6lzs2zcXIUp5Dl+4UA02y2calXut1PD7dHD1dAmMyLG89EKmGoTOnnPj5TCyKcahpuIiusfn5eWpS1lZWfl+i8VFIXJfMHoEyW0TSoAJmYvg9bpahOhFRzBen272HUGPCFnDsH4S1owXJ+kgTJ+jrG+S99m6CWsmzcH0Ko/thKota6XsIhahf/9FiFbKdNt9rZUynouY0aKM6xBeqv0Zjq+BApDsFu8RgHdi5a6axPpikPoYNnYm2yAuhb34vK4maMgwhiCyDcahRr8ulvz8fCQmJuL8+fNITklBkrKI/fpLYxbr3wNd5aqJuBgcUU7IM+TZNygsHP3XyEsp/cMRpj/JjhiNSTiCGFHTI9blfbZuWoNJo52h3qEOzJV1VYzK3pSoWZO1b0pA1dcaie3hX6TV7Wc4GNutAeqWi4lqN34vbOAAiGQjFigB6OUXdW2CRAiKOckQRI1LH2aMQ42o+UlNTUVSUhKuvLILNkVtwZDBg1FcXIzc3FwUiyHPLRHUA8H7IhGl2WWqERg9aQ02bd2KTWsmgfnHiGZlPQJLZduerGhDrZHY3vbCQI1/n/bFhi+BueOYNkNsEGlq/rxMvPZyhi4E3dyuzoMlEmmtYo1OaWmpGnS8vVvgjSVL8djk/0N6ejri4+PVWqETJy09443AjEXA3BDTdiZbZyrb6gl7LpbJG+KiIrFv0ujKl2PEpS6jGqERygGPjB+PI4tm1P7SjVOopqzlOvbF4JRctUwtfoYDs9kAFLvM13QwRSIbMndOFha/noGLF11x0/B2+OtvTptBjaOqGiAXlyZw9WiKn377FfOefkoNQydOnEBQUBBy8/JQUlQg71l3QdO36dr36C+rKMt4iKAzAkujRZjR7QuZG4z1S2WkMbrsovY42jYd5c1OgsIQ3r8/wsuvkZGe+bJWb8ScSWvU29RLWRaq9mc4OJeywviqx023hhgN2sr5vwyKsORoImZ1k5sOYuXqDUhKTpdbOoNv6INhQ/rKLYOBg8diyeIFCB0QIveQteLPZaBM+delUyu5xzLL3muBWf9uhZYtS7Hlu2QM6F8ob3E+mVn5OH02Hdf1CpB7SAs798bD09MLPXr0kHvM8/DwKG/jIxb9ekpKCqKjo9Ha3x/FxSXoec3V8hFVEzVIevoeZBYTvcCmAhHGoceYGIPm9R6INnc72SXxHtK/d8Q8dPPnz1fDlb/yHvT19UXf667ChPCh6u2NxYYvgekMXJzqcOGHHMeMx7Px4Srd3GHDw9rhl1+byVuIGoc+/IhFz83dHTkFRfBs5llj+GloauPnOQw/1PBsOgBN2XgWu2YYpr8gskVi7rDPP0lFfr4LRt7eBt997ylvIWpYhYWFapd3cckrJycHly9fRnZ2NtxcXTH8phvRqVNHec8GFDQd26qp3RmxNAv6K2VEDal+AlCY8eSnYtFPXyEuZxnvr36JCFMfRGTz7p6Yi8hvU9T1cXe2wRdfNVfXiYjINtn8JTAiezH6tjxs+S4Fnp6leODh1nhvRQt5CxER2ZoGCkC6+bvKCh2vMTORsZuG5GP7D8nw8yvFE7Na4fkXfeUtRERkSzQJQIGd1RELraLFMQRHPM6Bg4flmnUcsWxs8TX94/pC/P5rEjpfUYxXXvPF1Gl+MOpUUyuOWjZasKXj2NprInIEDfXZ1CQAJcTXNGKhfioM80tiYkKV++s6FUbNz6V2bOk4/fr2kmvWccSysdXXdFWPIvy+IwnBPYuwarU3Jt7jj4IC08HqquPIZWMtWzqOrb0mIkfQUJ9NtgEiqicdAkuw46ckDAwtwPpIL9wyqi0yMviRIyKyBfxrTFSPRFsg0SZozOg87PitKW4Y0k6dUZ6oPogZ3/WDGBoPZkhElTVQANI3gq7dcnKxHPtnsuhOn4qRui0iu+TpWYbIdSmY9uhldd6w0H+2w8FoTp1B1hPj/sybNw+zZ8/Ghx9+iF9++QW//vor9u7dix9//BE7duzA66+/jlmzZuHtt9+WjyIiwSZrgLrNSMTmycrKan8MWsaJJsn+iRHhly+7hP+8qps/7MZh7fD9Zg6YSNb566+/1AEP7777brRv3x5nzpxRl6NHj6qTnsbFxWHAgAG48847sWcP2xkRGbPZS2Ajn8zEQOX/3U/51qkRNJEtm/N0Fr78LBXFxcCYcW2wYqW3vIWo7oqVN1LHjh3Rr18/Neg0a9YMnp6e6uLl5aUuoaGhGDx4MC+JEVVgu22AuhWht7rihQ1R6gqRQxCjRm+L0o0VNH2GH2Y/1arO3eSJ9PTzfrVq1Qp33XWXuogaId1yjzqRqnIHNQQZzxMmFnJQYgLa4csRJzeparYbgGLdcUiuEjmaf95QgD07L6rd5d9Z1gKjx7ZBdrbtfhzJ9lUMN1nZ2UjPyFD/F3OCTX30URQUFqpLYVERLly4IB9ZB+LE6uOjzuqtW2Ziq7ypTniCrj0xW75xmc+UJa5FGVY6RhyWDx+O5U7yi7HRv7hemNrTF7vlFpEjCupajN2/JWHY0HxsifLEoBvb4Uw8e4hR3VQMPvqliUsTuLu7ycUd7m5ucFMW/f9NRMM0S/RfhOisLGSJZT0wnkGm3sQtHw6f8cB6fXkry3pssix0ChUDT1AYwhGJKP2OuChlKxxhTjI1fwMFoJoHQjRd/LFKPlL0IBvLSVHJQbVqVYofvk/GlMmXcfiIO/oPaq92lyeqDdHtXagqALnKoKMurq6GdRmGxH2sNmI0Ju2LwSllVT1Zl9dUGGoRTParJ984LJ86F/v2zUWIsm+4uKNJzZLz1EBULw5RkcCi6KUwnix/xFKxXaEMFy5Ug83ymaL86lIrF4SwcCBSn4BOxQDhYWZn7nc0Nl7nLmaPZzd4cmzKuQgRKy7h3XfSkZ7eBMPD2iLiAzaOppqJRtBCxfAjanfc3JTQI4KPspSHIWXd6hogI3HLX8ea/j3QVVkPmr6tvJYia30w5i5TTsNKsJk6N7i8BmN9sAhLQZgesQj9ZU3StumnMDMkBnP0j40OR+RU1iqptTH7gtGjyjRSoQzvaw0oYShmtChD08BUk6AewdgXIyIssHXTGgRX/QMdku0GIHUMIE6eSs7j8WnZiNqUDG/vMjw63U+dQ6ywkA1VyTwxDlBVtUAi3KiLCD/6ECQX/W3ifhaRtQ6itiYkMhzR26bragyMa3HGrwGOxCAuqAeCsQbjZa2ErvaigrgYHFHvIx8bImo2dLVKTk+Gy1pRwtCMKpPPVsw0KVvD70+tfRO1eGvEZbU4xByZhNF1SU92roECUN0GQlSXFbnysUTO4+Zh+fhj98XyOcRuGt4WSUmu8lYiU/kFBer/+jBjEn6UxVUsRqFHLPr7lFja9dC4DZBx+AmJRHi0vhZnEfqrdx6Bpep9R2OTetI1c3nG+JjqUrdaDIckwuM+o/Y5FtP/DpRF/F6MynrbdPHbG4HRk44gZmsUIoNHO1W52/glMCLnIxpHix5i4XfkYveepug3oD327uPI0VRZgQxAxkTAqRiE9Pv0+0WtUUF+vnyERvobGs/GRUVin7qyHDPVBj3iJByNRf2VE63+hK6v5VFP9HMhrpiRsRGYsQiYG2IaGrfONNrWqKZsxOhgzB0/F8HOVP2jYAAiskHiMtj6tal4dWEGEi+6YvDQdnhvRQt5K5GOCDH6AQ5FuDGmDzvG4UfcNzMzCxcunEdeXp68pwaCpmNOsOHSytSYYF0NkBJulDO47vKLTwgiwyOgVjqI+0/SXfYavrwrlkYvwpHxuseqC3uWqUS7quhFRwyXB5VlPGQtjXEZfpGm3t9i4jKY8s/J8g9cygrjdReQqUGtXL0BScnpcktn8A19MGxIX7llMHDwWCxZvAChA0LkHrJW/LkMlCn/unRqJffYrqgfmuG+h/xx6VIT3H9vjtpg2svL9j62mVn5OH02Hdf1CpB7SAs798argxn26KGEiQrE/F/Hjx/Hc889Vx5y9LU+4mSptgGS22IR4wEVFRXi1x07cPOwm+VRKjMeNVo8jqiuxHtI/96JiYnB/Pnz1fekv78/fH190fe6qzAhfKh6e2NptHf2lmlVdX8XSwDeiZV3IiKE3ZqP/XsuIuS6Qnz+ZXMMuKE9Yk5yvCACBg0ahEOHDmHKlCnqhKhPP/005syZg2eeeUa9vWIz57RLafj777+rDT9EzkKTABTYOVSu1UwffEatljsqccfsnuI+/hbNAVaX51IdWzrOgYOH5Zp1HLFsHPE1CRWPc2WXYuzakVQ+XlDf/gH46hsveWvVnKVsLKXFcRr7uVxzzTWIiorC2rVr8dFHHyEiIgLLly/He++9p96elpaGlJQUJCUlqSM/ezf3Rt++/dTbiGxVQ302NQlACfG1m2VYhB/zwaciL4yyIATV9rnUxJaO069vL7lmHUcsG0d8TUJVx2nWrEy9/PXpmjSIns/3PuCvdpXPz6+6O7MzlY0ltDiOrb0mY2KMIG9v7/JFXH7w8GBjerJ9DfXZbLhLYFH+JuFnysYqur6rSyqmyPuoIWha9d9yay32Qwzy6AwXkyVck8ttscvCKxzX/DJo2Rn5KCLLPHBfjtpVvuc1uq7yof9sx0tiRER11GABaMtGfZDJxWYl6ESYnd5CN2bQycVFus3VvlaHlC3TlPDRc2EVc4sdxOyeDCVkf0T42bfrIv718GX89bcH+g0IwJpPmstbiYioJg3UC0zMBaab30vU/JgPP8YseUwVoubCZcyXuvXJH6Nshb7V+Rm8c+MQzJa1ZFM2xlv8M0QNUPenDipr9yrhblGtpu5gL7DGZU+9wGoi2gKJS2FiNvm7JypfIFZcgo+PhYPcWYG9wOpHxV5ga465q//XJ/3o0oLoWUZUVw9dVcBeYJYrwjVWt4P6GVP14Sf0BZwsDz9CF8za8SuWyJ+x6rUPwc5nZI/uuSsXB/ZeRL++hfh6rRd6h7THzt85oSoRUXVsOAC545i17aCifiyfVX7KvEdQeVqxLhg9Qda47NmETUxAZKe6d9P1Env631k4f8ENNw1vh/kLWkLOlUlERBU0UADKxdjJurVVY2rXs2vLNN3lL7UmyMIJUWNjjsu1vmaP0W3UaAxU1w5i7Wa2BSL75eFRhjcWZWD7D8kIDCjBq4t8MOhGjhlERFSVBqsBGjlGP7mp6N5+BaZGyc1KRNsfo+7ykzMtnhH+5HHRLke4GleZO0a3rugtV3cfPy3XiOzXTUPy8ef+REyckIs/9nsg5B8B6jQaRs06iIicXsNdAgtLxWZZCySsGmM8+rPxoq/5EXKx2eJZ4c/ghH78wNBu6C5Xq3X4lJXtgL5Uwl3Fru/adLUnqgs/v1J882UqPv8kTa0ZemJWK9wyqi3iz7I2iIhIaPC5wGo/GKLoLp9aqx5VVTPq5SUaQO+oqg2Q8DOmejysC13V3s88Qy+walQ4dlW9wNr4N0e7NpUnvJwz7z+4+66xCOraRe6p2vCbb0SzZs3kFlUnJS0HUN75oswdXeJFN8yaHYiff2kOb+9SvLggCQ/enyFv1U5uXiGSU3LR5YqWcg9p4fjJFHh5NWcvMLIr9tALrNEmQzUfhKwNPnq1DTbWByDzjI4tGHXDryoAJSddQNLF83LLYPvPu5Q/ft2VN42P3FO1lxY8V+N9SCc3r0j9I9/cy3lGxv3q67Z46+2OyMtrgkGDsvDyS2fQvn2hvNV6RUUlyFHKtaUPQ7iWUi/lonlzBiCyLwxAjcoWApBgPN5QXyw5Gqm2aeI4QI3LkcYBqovTZ9wweaoffvq5GVq0KMV/Xs3AY1MvKyc5eQcrcByg+mFT4wCdexdLJjyj/FUzNgDh637BTZ3kptbEz3wJuH/1E2gjd1lF6+NRlTgOUKO6UoNxhLRg1NWePc2okYlJVbdFJeP99y4pJzkXTJ/hp3aZPxnLtkFUS73fwPy9eVhavtRj+KkPnZ7AbIYfUjhwALId3XpcLdeIGp/4Qv/olMs48lciwm7Nx47fmuLavgFqt/miIl7uIEv8gG8GeGLJV3G6TVHLMuAm/LJP+X/y4/hmsidmKreL5Ztdurvo7qPf/ziO6vdNfhe/LNLvi8MvLz2DM4eewSvGx5dSvrqp/Lgzxc87V8V+5Xgput068mekqP8bnts3u5SfVb6uu6u545s+d2XR/wyT/Ub3J5ukcQASQ/JrNHlpDcQ4QdWPJ9QFV+knUd8Ti5NytVq9ump8+Uvq1k2ONURkO67oVIwt3yWrPcVatChTB07s2789du/hKNJUDRlGTE/+t+KudW8A7yyRoWU9QsRlMXE19NBhtFsga4uWPIJds0WwUQLThGcQuES3f/6sw4hY9EP58ZOGiP3voSeCcNOCN9BF1jrNvidIdx+pzT2/yFoocexeiPxcOYYSQj5/pxemyv1Tg06YBiBj+uemPq9HAP36R7pAU+XxKzz3pcrr1nVPEftP4Fb9/deNR/RLFcIX2RTta4BW+6td2Wsz2KFlKowTVI3uV+svPR3HCXNd0WNP4ZBcHXj1lXJNY7GxVUzESmQb7rsnB8f+TsCD9+fg8BF33DCkHR573A+ZmawgpipUvASmv5zU6QncL4LMgF6IvvlDw2Wx3uMRrF8fdDsG4TCS98UgQTnOsEG63W3+OR5dNnynqwUy2l8j4xqX2R8CcTFI6dQDgfhQeR66WqWec0WQMkP/3DpdpYQso3X1RkVVxz9n+tzLif3qz5X3F22lDlUTvqjR1dNfON1ghy4a1wbFLgtQw1V5r6oaGC49HcQxMwEodvMmGU76YuKo6ruZW2rLRjkfWT3+DCJrtG5dik8+SlPbB3ULKsbKVd64uneAOtEqUW216ayvdm8AIpxMEDVN+hoXfU3MrbhLDWe345AaRuTltboyd/xzJyo0AjdSMRyqtVhkqzQJQIGd9a2NcxGx0WjgQrU2qHZByHCMykSXeXGc7k8Zej9M2Vh1V3mT44RNrWGy0zPYtE6O3xM6GqONrn/pj7NlmtGghtN+VveZiJqLQcvMN2wO7NAbL+trqyr8jNo6cFA/oqN1qivjurCl4zjiaxIaq2xuHpaPw38m4qUXMpGe3gT3PuCPpt7ncVSDnkcsY/O0Ok7j+gHfzAam7t2AwHceqbr9y67vsEvUtPTvgcBDz+AnfVubnetxZuzt5sOCuZoUo9ol9RhiRQku36hthUQQOozw3oeRbGlbnKqOL2qxDq3HkYrHFDVPRq+JLNdQn01NAlBCvNGspWGpKCtMxRS5qdIHIXWp+vKYyTHkZS79Y0wvd4lxgs4iIkxuVmB6nC6YNe9e3eqehehuEmCMu6dXnizV9DjV2/3UEOV5dq4chGI/RJeUrPIapiUfWdbFvl9fbb5V1eU1VceWjuOIr0lozLIRI0e/MD8Th6ITccuIfBQWDkKffgF48ulWyMqy/E8Gy9g8rY7TICq2AVIb+4pG0GOBJaLGQwkeor3MBFnzYnx/EZDUS2a6NkMJs3X7XxFtdubeqh6+kk5P4NaxuktLJo2gxf4gw7E/P9NLV0OjBBEox9M9twqX4+rC3PHLX59uv3qpS7/f6DWpS8UG2FQrDfXZrN9xgKKU4DNGuyr0KRvNB5/qiFqc6toMDVz8K3bNqPrSlMljjQYyLBc1V3mN+ktc5k3ZGG/y3DkOUONy1nGALLHuv17499MtcfacG9q1K1HHDnrogZxKYwdxHKD6YVPjANWVuIzk6GPu7HocM3+9HUvNBTgnxXGA1NqgsygzvixmARF8xHEsCT/CyBXxKDv6QhU9scTAhPFmw0+thC1Snlu8yTxnJkRoUm639LkTNbYJ43Jx7FAinn8uU20YPWlya4T+k73FyHkdVbvpy0XUajH82KX6DUB6+iBUhzCkDz3WBB8T3R7BLiWIiDBiWHSjMldHDU/6+1es/TFicj/jpZrHENkLL68yLFyQiaN/J2LsmDzs+8ND7S12/0OtcSHBVd6LqIJOjjnoYM+5bOjsCBomABkzDkPVLKwxIbI9YiTpyHUp2P5DMnoFF+GLr5qjR89ALFjoi9zchv9zQkRkqQb6i6Vr1Dw1Sm4SkV0bNjQf0X8kqlNqNG9ehoWv+KJP3yuxbl1blJTIOxER2bAG/cq2aozs2XWjbxVd0onInri66qbUiD2WgGefyUJ2dhO8+tqV6B0SgI2bPOW9iIhsUwPNBi9qgKoewHDg4kTsmlEkt5wHe4E1LvYC097RY8V4Zp4PtmzxR2kpcMOgArz5nwwMDC2Q9yBLVOwF1hBKxS9Q0vfkIaoL8R7ibPCqXESobXsSywcm1Nv9lBjd2fz4QERkHzp0KMYrL8fh4L6L6iSrv+9qikE3tsMd49rg0OH677pNRFQXDRztizBrh76hc4XBEvXTZyjLoGX8Y0lkr/pcW6hOsvrLtiSEDihQL4ddd32AOqr0yVg3eS8iosbViHWb+lohZanQNd5QKxSAd9hYiMguDbmxALt/S8L//puCntcUqfOK9bw2EI9M8UP8WQYhImpctnFx16hr/MnFxu2B3DG7Jy+NEdmzMaPz8NeBRHz5WSq6XlmMjz72Ro+eAXh0up86ujQRUWOwjQBUzgtvGk14SkSOQbSFvOeuXBz9OwEffZCGDoEliPjAG92vCcBjjzMIaSFr/3781rs30rZtk3sM0rZuVW8T9yEiHZsIQPrZ3kVDaNOeYkVYcrTqWd+JyP6IrvOTHspBzNEEfLDyEgIDSrBylTe6XR2A/3vUD3GnGIQskaEEm0OPPooBkyfj3IoVSFECj17Kjz8i/u23MWDqVJyYP1+9LxE1YgCKXaZv51NxtnfFZP0lscQap6ogIvvjpuScyf+6rAShRKyOuIROHUuw+iNxaSwQ99zvj8NHWBNcF3sffBCdr78ehcnJ6HZ9P5z/4F0cW7cOh7/5BmeXv43uoQNQmJiInmNuw96HHpSPaiBxyzF8+HIYzeNO9YVlXScNG4BifTFIhp7ulS515WKzvlH0CusmTyUi++DuXoZHJl3GiSMJ+OSjNFzVowhfr/XCtX0D1O7ze/ZywtXa6LNsGf7atg2pFy/g0qnTaNuhC3Z/+D4OfLwSbTsHIf3ceaRnpuPI1ij0WbpMPsoC4gTr46OO56JfZhoqmyzHE3dl9VXWVK6BApBuKgyXnr7YLffoiYEQdbU9vNRF5KxEjdCD9+fg8J+JWPdNKkKuK1S7zw8c3A5DR7TFliiOLF2d9sOHI+T993Hy4F7kpl5EVuxpDGrVBqEt2yAvMRllLTxxMnofOk2frd7XKv0XITorC1liiV6EI+N5Yq43LOt6pUkACuxcYXTDmoRm4qSs7dGPAl3nY5jhiMc5cPCwXLOOI5aNI74mwVnLRjSWHh+eiwN7LyJqUzKG3pSPX35thlFj2qi1Qp9+3lw5zmB5b+s4WhkHjhiBa15fitOnTqAoJxMFF5ORn56FjKSL+HPLRlz14iIEWBt+Kgqajm3ixPy6rL0xqbUYjuUVq3SqvD0Oy6fOxb59cxGi7B8udtZ0HGdU17K2Yw312dQkACXE75Fr1ZuyUV7i2pGJik17anuMmjjicfr17SXXrOOIZeOIr0lg2QC33pKPn35Mxv49FzFhXC6OHHXHQ/9qjSYup/CfN3yQnm7dny9HLGMxgUVhcTGKjh9D0f79KNq1C+7nlDOjSxOUlNXTrEdBPRC8LwansBUzQ2Iwp7zGIhyRU40va5m7PQjTIxahv6zt2Db9VA3HcWK1Lmv71lCfzQa6BKYb9DAiTG4SEdVSv76F+PbrVLXn2PTHspGe0QRz57dExys7qF3oT8SwwbQQv3UrDsx8FMGZOWh1uQBNfTzRrEUz+KZdRnBWLg7Meky9T72Ji8ERrMF4fa1EiKjVESdrqabb9Wp7P2fGMtJEAwUgIiLrBHUtxntL03Hu1AW8ujADvr6lahf6q3sF4LY72uDHrc3kPZ3PGSXY7LznHgzOzkOb7Hx4+3rjbS8vLG7RAt4+3sq+PNyoLNFPzsCZKsYJsoo4Gffvga5i3bjNirosxQj1TlJNt+vV9n7Opi5lTTViACIiu+LnV4p5z2bhzMkEfLomTa0h2rzFE7fe1hY9rw3A8vdb4PJlF3lv57B95kyMLCxEu6wceLX0wRveLfDYy//BI8+9iLd9fODl64O2mZcxtKgEvzz5pHyUFsSlmLkInjMdQerlmblYZq6Sqabb9TUYNd3PadWhrKlWGICIyC55eJThgfty1DZCv/+ahLsn5uJkrDsen9kKHbp0wIzZrXDsuHNcHrvt00/xvbc3LnUIwPtK4Jnwwovof9ddGPzAAwibMxcftPRFWquW2OrhgbCPPpKPspBsrKxrfPs6ekRnYala9TACS2VPJd1tymLStb2a24OmY84k3SWd4cu71nAcJ2JxWVNtuJQVxtdTyziqzsrVG5CUnC63dAbf0AfDhvSVWwYDB4/FksULEDogRO4ha8Wfy0CZ8q9Lp1ZyD1krMysfp8+m47peAXJPw7uQ4KpeFvvgQ28kJbmq+8SkrI9Oyca4sXlqaLI3O/fGw9PTCz169JB7qnZx/35EPfIIgufPxz/uvFPu1dm3di0OLXoNt32wGu2vv17uNa+0VDSn1mkiuuYR1ZF4D+nfOzExMZivvC9FUPP394evry/6XncVJoQPVW9vLHxnE5HDEHOMvfxiJs7GJeCLT9Mw+J8F+HVHU3V0adFoet7zLXH6jGNOtyGCzcN//VUp/Aj9J07EI9F/1ir8EDkLBiAicjiipufeu3Ow46ckHPkrEU9Mz0ZhIbDodR8EXRWIW0a1xbr/eqGoyLnaChGRAQMQETm0ntcUYdmSdCTEX1Bnoh/QvwBbtzXDnXf7I+CKDnjy6VbqGENE5FwYgIjIKXh5lakz0e/+LQmHohMx84lsiLEBlyxtgV7XBaD/oPaI+MAbmZn8s0jkDPhJJyKn0yu4CO+8lY4LZy6obYVuHpaP/Qc88Oh0P7Tv1AF33+evzj9WUiIfQEQOhwGIiJxWs2a6tkLbopJx+mQCFi7IRGBACb751kudf0w0nH5mbkscOuxcl8hE7x39QmQJe3jv8N1NRKTofEUxnn8uE7HHE/Dr9iQ8Muky8vJc8OZbPupErL1DAvDGYh+1qz0R2T+OA9RIOA5Q4+I4QNqzhXGAtJaf74LvvvdUZ6GP+sETxcXim63yWf1ngVpzJGaub93aMGZOfdCPA0Rkz2xxHCAGoEbCANS4GIC054gByFhKShN8vbY5vviqOfbu81D3ubkBI4bn4a47cxF+R57yB177MCQC0MDrO8HV1bTCPjs7B4kXkxAbG6/8n4ycnFyTAQzJvIvJl9HC2wPNvXS/R7Lerj0HcOHCRdw5/ja5xyD6r5PIyMxBixYt4OfnB29vb/QLuRrjx94k79E4GIAaCQNQ42IA0p6jByBjp0674Zu1Xvjy6+Y4fETXPqhp0zLcOiIfd03Mxe235Sl/7LUJI+YCUF5ePtIupeP8+Yu4dCkD+QUFKBPd2qhG5y5koqVPU+V35LwT6Gpt67YdyufiHKb+331yj8Hvuw4hOTUDnp6eai2Q+D+kTw/HCECBnUOREL9HbllGi2MI9nKcugQgj+bdsOOnb60OQI5YxpYeo2IAYtmYV9vj1BSAHLWMf9x8QK0ZWvutF07G6kaZFo2rdWEoB6NH5dcYhqp7LuYCUFFRsRqCsrKzkZubh+LiEtw0/B78vPVLeQ/LDR1xr9XH0eIYQn0cJ/b0JbT280QrX091uy4cvWwstXbdJryxOAL793wn9xhs+WEPzp5Phru7u/JFoSnc3NzQp3c3swFIq89mTcdgDVAjYQ1Q42INkPacqQbInD//8sC3673UMBQbpwtDYlRqEYbGhedizOg8dTb7ujAXgMTlrpKSUiUIFan/s/an9o7FpKBtGy+0btVc7iFrrflkLf76+xjeeWuB3GOwfsMvOBl33qR3Ye/grrwE5qwYgBoXA5D2GIBM6cPQ+v964kSM7jKZaDM0+J/5anuhsXfkolPHmgcaMheA9IGn4v9Us6MndAHI348BSCurVn+pvOePYsW7r8g9Bt+s+wkxsefkls61vYIw7o4hcqtxmH6iiIhIE9f1KcSrCzNw/HCiOh+ZmKS1d69C/PxLM8yY3QpXdO2AfgPaY+Ervso357o3xnVxcVEX/TdqV1dXLrVcWF7aL6JMxfuxutuMF1vAAEREVM/EfGTz52Xi4L6LOBWTgLffTMeNgwvU4LNgoS+uu749unQLVIPRj1ubobCQk7QS1TcGICKiBnRll2LMnpmtDraYdP48PvkoTR1PKO2SK95d3gK33tYW/gEdMO5Of3y4xhtpaeyqTVQfGICIiBqJGETxwftzsO6bVKQmnseW75Ix7dHLaNWyFJH/88LkqX4IDx+A60MD8fyLvtiztyk41A+RNhiAiIhsgBhHKOzWfCxfdgnxcQnqjPWvv5aBPn0y1bGGXnnNFwMHt4Nfu47qZK2ffNYciYmcloPIUgxAREQ2SMxY/8xTWXj33b9x8dw5fPNlKh56IEcNSmKy1ocfaY3Azh3Qp1+AOmHr9p+aoaCAbYeIaosBiIjIxrVsWYqJE3Lx8YdpShi6gP17LuK1lzMw5MYCHDvupk7YOjysLVq17Yiw0W3x1hIf/H3IHewZT2QeAxARkR0RPYj79S3E3DlZ+GVbEtIuXsD//puith3q2KEEP/zYDE/NaanWDLXv1AH33K9rTH0mXjcwIxHpMAAREdkxMc2GGGFatB2KOZqAM7EJWB1xSZ2gtazMBV+v1TWmvrJ7IIKuClTXxYSuCWw/RE6OAYiIyIF0vqIYj0y6jK+/SFW72f+5/yLeeiMdo0bmITnFVa0Nuv+h1ujQuQOu7hWAqdP88NU3XgxE5HQYgIiIHJS4XNbn2kI8OSsb3/8vBenJ57D7tyS1/dCI4fk4d94Nq1Z7494H/NVA1KOnrobo08+b85IZOTwGICIiJyHmIgsdUKC2H/pxczIyUs5j5y9J6pQdIhCJWiBRQ/TQv1qrl8w6XdlBDUcrVnrj0GE2qibHwgBEROSk3N3LcMOgAsx7Vh+IdDVE/3k1Q71kln3ZRb08Nn2GH67tGwD/gI647Y42eO0/PtjxW1Pk5bHbPdkvBiAiIlLpa4jmPJ2lXjK7lKRrQyQaWN9zVy68m5di8xZPPPdCSwy5uR18/Tui/6D2mPlkK6xd54XzF9iOiOwHAxAREVWpiXKGEG2IRBf7Lz9LVUeoPnvqgro+/bFsdbDGg9EeWPZeC9x1r796yUzMcj/xHn+8/U4L7NrNWiKyXZoEoMDOoXLNclocQ3DE4xw4eFiuWccRy8YRX5PAsjGPZWxeQxynU8cStTbovaXp6uz2mannsP2HZLzyku6yWU6uC75d74V/P9MKNwxpB5/WndBvQHtMe0LXuPr4ibq1JXLEMnbE1yR89kWkXLNOQ5WxS1lhPJu1NYKVqzcgKTldbukMvqEPhg3pK7cMBg4eiyWLFyB0QIjcQ9aKP5eBMuVfl06t5B6yVmZWPk6fTcd1vQLkHtLCzr3xGHh9J7i62keFvQg3MSfdsWevhzp5q/j/8BEPFBfLOyh8fUvRN6QQ/7i+EP3/UYgB/QvUQRwbypHjyWjXtjn8/ZrLPWStiA++QPSfR7By+Wtyj8HX327HiZNn5ZZO7+CuGHfHELnVOHgJjIiINCO63l/Vo0idt+z99y4h+g9dLdFvPyfh7TfTcffEXLT2K8XPvzTDG4t9MOEu3aWzgCs6YPTYNpi/oCX+950nLiSwPRHVLwYgIiKqV15eZfjnDQWYPTMbX32eirgTCUhJOI/NG1Pw0guZuP22PDU4fb/ZE68u8sHY8W3QsUsHtOvYAaPG6EJR5P+8EH+WYxORdhiAiIiowfn7l2JkWB5emJ+JjZEpSIi/gAvKIuY1e/65TLU9kQhFW6J0oWjcnf7o0i1Q7Yp/861t1fnOxJQeR4+5o6Thrp6RA2EAIiIimxAYUKLOa7ZwQabaDV/MfC9C0XdKQBI1ReF36Lri//RzM3XGezGlR3CfALTw64QBN7THlMf8sPz9FvhtZ1NkZvL0RtXjO4SIiGyWCEWjb9PVFP3321R1ste0i+exLSoZb/4nA/fdk4OgrsVqd/wPPvTG4zNb4cZh7dCyTUd1NOs7xrXBCy/5qj3TRA801haRHgMQERHZFT+/Utw8LB9PPZmFzz9Jw6HoRGRfOoc/dl9UZ8J/Yno2bhxcgMysJti4yRMvv+qrjk10TW9dbdFd91yDGbMCsGRpC/y4tRkbXDspBiAiIrJ7zZqV4fp+hepM+MuWpOPX7UnqSNZi4MZNG1Kw6JUM3Ht3DrpeWYzjx73w1dct8eTTrXDrbW3VBtd+7TqqNUdivCJxGe2XX5shJYWnSEfG3y4RETksMXDjbaPy8OwzWfji0zQc/jMRf+w9iF+2n8ZnH6ep+0W7o5a+pdj5e1O8H6G7jDZ0RFu07dBRXcS0H49O98O7y1uo7Y8SE1lj5AgYgIiIyKl4eJQhODgf99+bo9YMiZ5np2ISkJV2Dnt/v4iPPkjDv2dnIezWfHg2K1UbVUd84I0Zs1upPdACO3dAq7YdMXBwOzwyxU8dz0hcaos56cY2RnaEAYiIiEjh7V2mjkw96aEcLH49A1u+S1bnPxPti/bvuYhPPkrDM09lqeMW+bcuxR/7m+Kjj70xZ15LtbH1VcGB8PLtpPZME9325z3fEp981lwdEfvSJZ5ubQ1/I0RERNVo3rwM/foW4sH7c/D6axnquEUnjyUgJ+Mc/j6YiG++TMWLz2eqo1wH9yxSB2wUAzcuet0HDz/SWq0pat2+o7oMurEdJk1urd62PtILfx9yR24uJ4xtDAxAREREFmjatAy9exVh4oRcLFACkBjlWkwQK2qMzp2+oHbVF5PGil5pt4zIRwvvUuzd1xQff9pcrR0S04D06RcA71ad1IbYw25pi6nT/LD4bd0ltSNH3Tmbfj1iACIiItKQGMFaTO4quupPfyxb7ZX2w/fJ6hhGuZnn1IbY69em4rWXM9TLbYMGFqCoGOr8aKtWe+PpZ3WX1HpdF4DmLTvhiq4d1LZHIhy9+ZYP1v3XSx33iIM9WoelR0RE1EBErZG4TDZubC7mzslSG1zv/CUJSecvICPlvNrWSFxSe3Vhhjqh7MDQAhQWQe19JsLRM3Nb4s67/dFvQHt1sMc2gR0R+s/2uO/B1liw0FetXdrxW1OcO++K0lL5Q6lKDEBEREQ2wNe3VG1rJC6pzXs2Cx9/mIbff01SpwQRl9X+3H9RrTkS7ZCmTL6MYUPz0dxLNMb2wJdfN8fCV3zV9kWi276oNfL06YQePQMRNrotHntc11tNjIi97w8PpKby9M8SICIisnGih1qfawvVmiPREy1ixSVs/0F3WS0/+5zaKDtqUzKWL7ukduEX86b1vKYISclN8MOPzbByla63mhgRW8ybJmqOfFp3RO+QANwe3kbt4i/mVxMNs/cf8EBamuPHA01eYWDnULlmOS2OITjicQ4cPCzXrOOIZeOIr0lg2ZjHMjaPZWOeI5eNu3sZugUV49Zb8jHt0ctqF34xb1r0HxeRmXpenTvtwF5d7ZGYP03cR8y2LwaJPHXaDZu+91QHeRQz7IuG2f8Y2F6ddV9MGyLaIY28va06EKToufbVN174fVdTnL/gWmnMo8++iJRr1mmoMnYpK4wvk+vUgFau3qAk83S5pTP4hj4YNqSv3DIYOHgslixegNABIXIPWSv+XAbKlH9dOrWSe8hamVn5OH02Hdf1CpB7SAs798Zj4PWd4OrKCnutHDmejHZtm8Pfr7nc49wuXnTFmXg3ZXFFvPq/G+LPuuLsWTecPeeK7Oyq33tubkrQCChG584lKCiIRbNme/Hr9uHyVoOvv92OEyfPyi2d3sFdMe6OIXKrcfATRURE5MTaty9RvmAXqOMYzXk6C++/dwmbN6aovdWy0nQ1SKJ7f+S6FCx9Ox1PzsrG+PBcXNenEPkFLuoUIvv+CMYf+yfII9oHBiAiIiIyS8y+H3JdIcaOycOMx7Px1hvpWPdNqjr7vui9Jrr2L1wQgQnj5slH2AcGICIiIrKYmIm/bdtL8PLKkHvsAwMQEREROR0GICIiInI6DEBERETkdBiAiIiIyOkwABEREZHTYQAiIiIip8MARERERE6HAYiIiIicDgMQEREROR0GICIiInI6DEBERETkdBiAiIiIyOkwABEREZHT0SQABXYOlWuW0+IYgiMe58DBw3LNOo5YNo74mgSWjXksY/NYNuaxbMzT6jiffREp16zTUGXsUlYYXybXqQGtXL0BScnpcktn8A19MGxIX7llMHDwWCxZvAChA0LkHrJW/LkMlCn/unRqJfeQtTKz8nH6bDqu6xUg95AWdu6Nx8DrO8HVlRX2WjlyPBnt2jaHv19zuYesFfHBF4j+8whWLn9N7jH4+tvtOHHyrNzS6R3cFePuGCK3Ggc/UUREROR0GICIiIjI6TAAERERkdNhACIiIiKnwwBERERETocBiIiIiJwOAxARERE5HQYgIiIicjoMQEREROR0GICIiIjI6TAAERERkdNhACIiIiKnwwBERERETocBiIiIiJwOAxARERE5HQYgIiIicjqaBKDAzqFyzXJaHENwxOMcOHhYrlnHEcvGEV+TwLIxj2VsHsvGPJaNeVod57MvIuWadRqqjF3KCuPL5Do1oJWrNyApOV1u6Qy+oQ+GDekrtwwGDh6LJYsXIHRAiNxD1oo/l4Ey5V+XTq3kHrJWZlY+Tp9Nx3W9AuQe0sLOvfEYeH0nuLqywl4rR44no13b5vD3ay73kLUiPvgC0X8ewcrlr8k9Bl9/ux0nTp6VWzq9g7ti3B1D5Fbj4CeKiIiInA4DEBERETkdBiAiIiJyOgxARERE5HQYgIiIiMjpMAARERGR02EA0lLshxjk0RkuJks43omVt1vo9JnzynJObpEW1v93I9at3yi3SAvHjp3E66+/JbdIK08//Qzy8vLlFmnh3fdWYu/eg3KLtPD3oePKckxu2QcGII1smaaEnZ4LsVtuGxzE7J6dMWjZGblddzk5uepC2jl3PgHnlYW0k5mVjeMnTsgt0spff/2FkpJSuUVaiI2NQ9ol03HYyDqZmVnKki237AMDkBai5mLUark++WOUFcbL5VcskYNR7n5qCKZG6daJiIiocTEAWe1nTB3zpW419AWcXDFUt67qglk7DCFo1WsfoqarYanHY/H3l5EmS8/iYuTujTbZdyxyC8pK+a2QiIgaVlFuHg59tcHknNTizDl0zsw22SeW7MQk+Sjbw6kwrBU1Fy4yAE3ZGI+IMHXVROyycHR/Slxv7oslRyMxq1vVU2H8o2t7/PHgo3KrZjc8/RiGv/qs3KK6mP30f1BWVoZ3Fs+Ve8haP2zdhWefW4Tofd/JPaQFL9+rkXh2P3x9veUestbwsIfw4APj8eB9Y+Qeqosvx07Cyc0/ya3q+XQIQLtXFuBk/EW5R4dTYTiA2Jjjcq0vrlGCTVW6jRqNgeraQazdbL4tUH6i4Q3S+56x5ctRNzd49g8p327ezl+9T8KBv9X/iYiIGor+3HPlsBvKz0tZXToh3rdF+bZYhKwLiSjNzVPXbQ0DkJVOHtf3JLgaV5kJQOjWFb3l6u7jp+WaeeJNNe6TpeXL5mZN4fevuw37Pl4q70lERNQ4xLlIf15KGtgPewPbG85TyqL/sm6rGICscgYnDsvV0G7oLlerdfhUje2AiIiIqH4xABEREZHT0aQRdGDnUCTE75FbltHiGELDHudnTPV4GKvEqugBtuMRVLwKpjvOokr321ZFI+jT27fiyt9+R6JnM2wPbC/3ArFxZ+Dq6oomTXR59cqyMtxbXIzTLi740s1N3Sd07NBevZ85Z+LPo0vnjnLLcrZ0HEuPkZqmK3v/1q3U/1k25tX2OLl5+UhLu4ROHQPlHlMsY/OqO07cqXhc2aVT+ee/Os5WNnVhfJwLCUnwaeGNFi2aq9t14ehlUxvjz5yDZ0kJ1ivvyzx5zklKTkFOTh5K8g3NPBZ36oecpFQELV+CuJRMuVenukbQDZUp2AvMKjUHIJ3K96sqAHUpycGZl99E+9B+uHnN23IvcNsdD+Ox/3sAva+9Wt3OiD6Mw8++Bt+QXuj9n3nqPqFjhwAlALFSrzaWvrsGZcq/WU/8S+4ha+0/cAhvLF6JtV8tl3tIC336hmH3b5Hwau4p95C1Hp3+HMaNvRW3jLhR7qG6WP/PschXvkSOU96Xnv5+6r5PPl2Hk7Fn8PUX76nbgqUBqKEwAFnlDN65cQhmi5CpQQDqrfx9OzTnRbUR9INRcmwhxcDBY7Fk8QKEDghRt09t34nPRt5X6X5Uey+9/I4agF58frbcQ9b6fdd+zJm3CDt/WS/3kBZa+PVE4tk/4O1d99oKqlr4hCl46MHxGDvmVrmH6kIfbP59dj+827dR90V88AWi/zyClctfU7cFWw9ArC4gIiIip8MAZJUuuKqXXN0Ti5NytVq9upqpJTI4/dPvJiNpBqZeQsKPv5rsIyIiakzG56S8fX/CM/a0yT5R+2PLGICs1P3qvnLtOE6Y698eewqH5OrAq6+Ua5W5NTdUcUc+PKt8uTYuHodeXlK+/ddn69T7NPP1Uf8nIiJqKPpzz9ZnXy0/L2V+shYtf95Vvi0WvSbuhs46toRtgKyl4VQYwddciYDEszj3m2nL9d927kNw8FXwa+Ur9yhhqVkzDHphNpq1NOyj2nv3vY/VNkAzHp8k95C1Dhw8jDffWmnSCJKs16dfGHbvYCNoLU17fD7Cw2/FiJsHyz1UFxmxZ/DHkgh1OiE90ZNMzAbf59pr5B6da+4ei9+TcpCSmiH36LARtEOoqSF01bdXFYCIiIicARtBO4QumDXvXt3qnoXoPu1n3brKKPwopswz10uMiIiIGhIDkBbCFmHzZLm++mG4eHSWiyH8DFz8q8nlMR8fdmklIiLnZAvnQAYgjYxcEY+yoy/IWd+NiXY/8dg1o4vc1hk3ZggCA2x7ojgiIiKt9by6C4YN0XcgajxsA9SI8vML8emXUUi8mCb3EBEROS4RfsaPvQlNmrjIPY2HAaiRFRQUIe2S6QiZ1MDO/Q//mrhaHaqg98xV+OjuAN1+sg7LVXssU+2xTBtU+3atdeEn9kMM6rkQu5V9oolIxaskDYEByFYZvTkMDN3oqQpVlpmi2mlKFDbwQbQ/RtO74F5sLlyEkeq6EZZrLRmXpUGVZcYyrZ7RsCTGzA1RomKZGjF03Km2zCqq8m9vDecrGyh3tgGyQVumdYZLpTeTcBCze3bGoGVn5DbpiBOIuTJTiN55yu0sN62IP5KVT9hUV/J9W0X4oboS70mlLKsIP8KqMaKc52KL3CYzYrdjrey4U1v2fL5iALI1yjeYUavl+uSPUVYYL5dfsSRUt3v3U0MwNUq3TqbENwlDmZk2TGe5aWPLNEPvRrKQ+PZrFHzEt22T9+1GObQG1YLpcCMV/wacXKxvbPslRt34IcwN2O/0qqzFqYGdn68YgGyK8o1Q/w1GXLZZMVS3ruqCWTsMb6pVr/GDbEJ++CpVo3Z7BLuMQtCqjcbjNFFdiVHNdX/w+mKgfC9SXSmfc/2JRnzOlfdtpUsNYYt4eau2oiJMwk/Fcus2I9IQgvYsxJv8EmREXwtprhanOvZ/vmIAsiVRPxq+EVY5aGIXjJ6g/yBvwiYmIGkoIkw+fBV0uxkT9Sfr1T+yGtxSyrc93ZQuosYiEs/rJwKmOoldtkx+zvtiyUccHNVasTHH5VpfTBxVdWjsNmp0+ZegQzG8FK4JBzhfaRKAAjtb/1VQi2MI9nwc4w/yNUbvJuNjGD7IB7F2c90+yI5Yxlo9lwPy/6oZfUtSluquaTti2ajHqcWcdzWp/HxqX67G7LuMf8abMkRi8ozyBqLavaYQi8q0osYpm6rV/jgHcayak2z1n/HqmL5Pm/pfL/dbruHLxhzly2NhPAICAnSXrupw6bWq81XF52Pp+Up3HMv+PujVpmw0CUAJ8dY3CNDiGII9H+fkcfmHEVfjKqMAZHKMbl3RW67uPn5artWOI5axVs+ln/y/MvEh1LfVqHpQS2OOWDYJ2/8Pg2T4EZcYLAk/gunzqVu5GrPrMjb+1jzGUGupzWv6GbcnXrKoTCtqlLIxo6bjdOtxtVyr5lJLbCwK1RXztURVq/w+LUjdr25Zo6HKprYsOU5V56tKx7HwfJUQv8jivw96tXlNvARmM87gxGG5GtoN3eVqtQ6fYjug2jDu2VDbslUZ93YSH0JnHIJAOQHo2wZM/tjiE6op5y1Xw7fmezFWCZKiTZX+G275YlFDXSd+r4ZNLW9rouvxWbG3l1I2r8m2Kka1bjXj59+8+jxfNVy5MwCRw9vytqFx38AJN9eyzYX4EOp7ljjrHz+jP0SVGjlayrnL1fCt+UuMUsKOvk2ViToP2+Ds71XTBrf6shVhcmqUUdnU6T3Mz3/jaNhyZwCyGadxTP2lk6ZiP8TL+m6ayrfu52tVg8E/foKhu/u92FzdQJK15uzlavStWSXKwNBdu2IbjNp1H+Z7VUeEoI8xRW7prRojy0b0Eq31e5hlWrP6OF81fLkzAJEDM7p8o5iysYrRiis5zT9+CuPu7kuO1qbcasJyNSVGz66iDMIWmYSg6rsPs0zLiUb6ss2Ibkwl4xohxeqHZY2Q3DaLZdo4GqfcGYBsxpW4puZG61Rr4tuE/jpy7Rvv7n7qYfkhVNSpvYCj0o3matJGRS7lA6CZXHKQuypguVZQXbsJkzYtsTgpVytimUpiAL9KPRRFjZCuVs0wEKKoEQrHO9U0RGGZ1pa256vGKncGIHJIJqMVW9p4V/nWaGk3YqoGy7XaYCNO3leVj7F0HCdq03LUicvU0MZP17C8IjEQoqFWTQn0/6plI3O+TxtHA5Y7A5DNMPqjV+0fRyO9unIQtSoYLt8oxLX/ujTeVUeUNrQl2P3U7Gq/MToq9aRh3DalimXzZHln9XKObp/ZWjaWq8I42GiAZar4GRvKP+u3mL9UW8taNZZpbWl8vmqkcmcAsiHdr9ZX1VbzrS/2FA7J1YFXXynXSE+En/KeNeJDVceeS7oyHYqI8ukzxCUgTqJoLZarTq0+47XEMtUey7T2tDxfNVa5MwDZEMOAXuZHNI3dvElW99Z1QC/HZ234MSHmECuvNuckippx8nI1/oybHxnXeIyV0RhdUzUv36s61U5zY9RrqTbj1rBMa1Qv56sGLncGIFtiVE1bde+PM9i0Tp7ga/OH0YloGn70whYZLvOIsVmmcSJVTThzuRp9xnc/FVH1Cdt4cs/ajlvltGU6FGPLL8V+iZfNtR0xGoGbZaqR+jpfNWC5MwDZlC6YNU+m30q/eOMxEmBm8jnnVC/hRxq5wqg7LRtFasZ5y9XoMy6+4VYctdhozjUxcN+ndWi876xlOnKFcduRIZVet/j7UF6mtR4LTIef/+rU3/mqocqdAcjWGKdf5Rdv6HZseDNZMx+TwzMpMzNLnapVTQdYq93gdFQzJy5X5TNu6JUkQpDRe9PoRF33wSedtUyN247oXrfx590w2rZorF/XMa0cvUzFXGdVvf/EkAFG+ytNLyLV2/mqYcqdAcgGjVwRjzKjD7SBGCDK8gkOyVKmf2DFHwaGIC04cbmKEFRxsD5JN5CfpYNPOmmZirYjhaZj/hhjmdaf+jtf1X+5u5QVxpfJdSIiIiKnwBogIiIicjoMQEREROR0NAlAgZ2ruJBdR1ocQ3DE47BszGPZmMeyqR7L2DyWjXksG/PsrYzZBoiIiIicDi+BERERkdNhACIiIiKnwwBERERETocBiIiIiJwOAxARERE5HQYgIiIicjoMQEREROR0GICIqLJYXwzyuAIuJot/1TNCExHZIQYgIjKxZZoSdnr6YrfcJiJyRBwJmogMovzhMsZLtz45FWUrcnXrREQOhjVARFRuy0YZfpCLzQw/ROTAGICISHLHicNyNbQI3eUqEZEjYgAiosp6FaGbXCUickQMQESka/jsEYDZe+SO1f5V9wAz6h02NUq9p2mPsRt9ESt3m3LHOzfqj2W0mL2/JNokVXzMNK+qn4dedbcZiV0WII9ZXe+2Ojxvo587aJm7bp+5518jL0yt+Dh1Ec/V+DnV1DPP6Dg1lTWRk2EAIiKL1abHWKVwZWyPL7orJ+fKQUWe5PUNso2JcNYAvdQse97ScRmGzD3/aoKL7uf6Y5XcNuWFUcpzWtsrv3z7ZX3YqkqUV/lxpszLZK0ekREGICLCyBVnUVaYiCWhcofoAVYo9umXVIyUN+mtGnMFRq2WG2aIWpby+1Q6puHnrRoTgHeMqie2TDMEj4GLEys8LhVTdDfVG0uft97u1V5qQKv43E8uLtLdwUxwEeGn/OeGZuKk0WNNfj9X55WXwe51XmZrdowbtY8Nk6tEpNIkAAV21n8qLafFMQRHPA7LxjyWjXkN81yKsOSo0Ul6h1EtQ5Q/uj+lO8lP2XgWAd9fq64bFGHWDv1J3R2z35Yna+Vx+hAgHrdrhj406AR2vhYRRzMxUG5batDC83KtggrPu/JQAGaetzEZXio+924zErF5sm5991O+5bVAahkbvW41dBmXpUr8XOX5bBTPJx9j5XGwxwubZAIy/V15YYM83sDFmZUCbHXs5/1Xe7Z0HJZN9RqqjDUJQAnxVdUR140WxxAc8TgsG/NYNubV+3NRa0YSMcvMdZXy2gclDDwdZu44RRg9QYaE1V669i2vmT6uIq1e164XOso1UxWfd9UqPm9TAyfkmr3c1P1qfShyxwkZXMRrqvUQBGGparAa+aQ+BLpj7WZdYDMum9hlvvLyVxEmjjINYjXRooy1+j054nFYNtVrqDLmJTAissiUMdWNE2RU+1BNGBC69TAOBO44Jv9u1fS4+mHp85arFjP8XEzOrV1tTbdcTJRfcitfBnPHpnXyEltoLkY3fEES2TwGICLSnhJkDsnV3U/pe1uZWYwbCscbHtcoLH3edWAITkaMfu7A8hqimhjVQu3xxZvGDbJjvbBWBkk2fiaqGgMQEdkIdxw7K1cVvasKCjZJed5W1wBZptuMzPLG0KvKL6Ep+WezrhE2Gz8TmccARET1qnIvLvNLxGD5IBtQp+fdaCFDCTj6xtDlbZEMl7/q2viZyJkwABGR9roVobdc3X1ctkWpo0Mxlj3OKho8b4tY8XNHlrfF8sIGcRksylcOIVD3xs9EzoQBiIjqQRGu0fdCraKXlFnGQaCa8W1qq+4hysLnbTUrfm5YrsllMEMvNjZ+JqoOAxAR1YMizJpnqJkYVeP0D2LkZzE6stElHaPxbSqJdTc/EnRtalOMxvoxZenztlYdfm6sL6aaDKKYi6f1AyyuNhpDiY2fiarFAERE9SMstXzQP/PTP+jntTKM/Gw8vs3snhVHWpZzW1XbA8u4XYx/hekqqpliQ8/C5221sEzDSM/i51aau0v+zJ6+lXrKdRuVW2FgSDZ+JqoJAxAR1RsxxUZ5mBA1GxW7klcVILplYpc62rEgQpDx/eUcWaFF1Y4EPXKFYboMMWVHpZ83OdVoWorKLHreVjMeYVoh5xur1c80GhNIVduxhIicGAMQEdUr3TxjxoGigvI5r4zmGwsTo0xXNedXLjaL+36kD0jm5CKiyp8pH1/dSMuSRc/banK6C7Pznemef8UpNkwvoRVhyZM1vz4iZ+dSVhhfJteJiOxDrC8GyRnhxXxdjdcN3XaUT6QqglmlecSIqCLWABER2TslEL5cyyk8iEiHAYiIyM4Zj/z8fKXLY0RUFQYgIiK75oU39V362fiZqNYYgIiI7FjsMl9dzzg2fiaqE00CUGBn4/6XltHiGIIjHodlYx7LxjyWTfUco4wN836JkZ9fu5llY44tHYdlU72GKmP2AiMiIiKnw0tgRERE5HQYgIiIiMjpMAARERGR02EAIiIiIqfDAEREREROhwGIiIiInA4DEBERETkdBiAiIiJyOgxARERE5HQYgIiIiMjpMAARERGR02EAIiIiIqfDAEREREROhwGIiIiInAzw/3ykeyujZ7WsAAAAAElFTkSuQmCC;" vertex="1" parent="1">
          <mxGeometry x="262" y="222" width="576" height="406" as="geometry" />
        </mxCell>
        <mxCell id="Gue0FOOu4dFzO12Dlx_n-2" value="Right-click on the graph background (NOT on a trace), and choose &quot;Export as Image.&quot;" style="shape=callout;whiteSpace=wrap;html=1;perimeter=calloutPerimeter;spacing=5;fillColor=#f8cecc;strokeColor=#b85450;direction=north;size=50;position=0.33;fontSize=14;" vertex="1" parent="1">
          <mxGeometry x="310" y="380" width="325" height="75" as="geometry" />
        </mxCell>
      </root>
    </mxGraphModel>
  </diagram>
</mxfile>
